<?xml version="1.0" encoding="utf-8"?>
<!-- Generator: Adobe Illustrator 26.5.0, SVG Export Plug-In . SVG Version: 6.00 Build 0)  -->
<svg version="1.1" id="Layer_1" xmlns="http://www.w3.org/2000/svg" xmlns:xlink="http://www.w3.org/1999/xlink" x="0px" y="0px"
	 viewBox="0 0 382 220" style="enable-background:new 0 0 382 220;" xml:space="preserve">
<style type="text/css">
	.st0{fill:#FFFFFF;}
</style>
<g>
	<g>
		<g>
			<path class="st0" d="M46,66.4c-24.3,0-44,19.8-44,44c0,24.3,19.8,44.1,44,44.1s44.1-19.8,44.1-44.1C90.1,86.1,70.3,66.4,46,66.4z
				 M76.1,131.2c-9.6,1.1-20,1.3-30.1,1.3c-10.1,0-20.5-0.3-30.2-1.3c-2.7-0.3-4.1-1-4.5-3.9c-0.5-5.6-0.5-11.2-0.5-16.9
				c0-5.6,0-11.3,0.5-16.8c0.4-2.9,1.8-3.6,4.5-3.9c9.7-1.1,20.1-1.3,30.2-1.3c10.1,0,20.5,0.3,30.1,1.3c2.8,0.3,4.2,1,4.6,3.9
				c0.4,5.6,0.4,11.2,0.4,16.8c0,5.7,0,11.4-0.4,16.9C80.3,130.2,78.9,131,76.1,131.2z"/>
			<path class="st0" d="M28.2,110.4c0-9.7,7.8-17.8,17.8-17.8c10.1,0,17.8,8.1,17.8,17.8c0,9.8-7.8,17.9-17.8,17.9
				C35.9,128.3,28.2,120.2,28.2,110.4z"/>
		</g>
	</g>
	<path class="st0" d="M155.6,104.2v35.5c0,2.1-1.3,3.4-3.4,3.4h-10.4c-2.1,0-3.4-1.3-3.4-3.4V107c0-9.3-3.5-14.1-11.1-14.1
		c-7.9,0-12.3,5.5-12.3,14.7v32.1c0,2.1-1.3,3.4-3.4,3.4h-10.4c-2.1,0-3.4-1.3-3.4-3.4V81.1c0-2.1,1.3-3.4,3.4-3.4h9.4
		c2.1,0,3.4,1.3,3.4,3.4v3.7c3.9-4.7,10.3-8.2,18.2-8.2C146.9,76.6,155.6,86.9,155.6,104.2z"/>
	<path class="st0" d="M227.6,112v0.1c0,2.1-1.3,3.4-3.4,3.4h-44.4c1.7,8.3,8.2,13.8,16.8,13.8c5.5,0,9.4-1.6,12.1-5.1
		c1.1-1.6,2.3-2.3,4.1-2.3h10.7c2.4,0,3.4,1.6,2.7,3.7c-3.9,12-15.2,18.6-30.3,18.6c-18.7,0-33.4-14.2-33.4-33.8
		c0-19.2,14.7-33.8,32.4-33.8C215.3,76.6,227.6,92.2,227.6,112z M179.9,102.5h29.3c-1.8-7.3-7.5-11.4-14-11.4
		C187.4,91.1,181.8,95.9,179.9,102.5z"/>
	<path class="st0" d="M319,77.7c2.4,0,3.5,1.6,2.8,3.8l-18.6,58.8c-0.6,1.8-2,2.8-3.9,2.8h-10.1c-2,0-3.2-1-3.8-2.8l-10.7-38.9
		l-10.4,38.9c-0.6,1.8-1.8,2.8-3.8,2.8h-10.1c-2,0-3.4-1-3.9-2.8l-18.9-58.8c-0.7-2.3,0.4-3.8,2.8-3.8h12.7c2,0,3.2,1,3.7,3
		l8.9,37.4l10.3-37.4c0.6-1.8,1.7-3,3.7-3h11.3c2,0,3.1,1,3.7,3l10.3,37.6l8.7-37.6c0.4-2,1.7-3,3.7-3H319z"/>
	<path class="st0" d="M325.4,125.7c-0.7-2.3,0.6-3.7,3-3.7h11c1.7,0,2.7,0.7,3.7,2.3c1.7,2.7,4.1,4.8,10.9,4.8
		c5.5,0,9.3-1.6,9.3-4.7c0-5.4-7.6-6.1-16.1-7.6c-10.3-2-21.8-5.2-21.8-20.3c0-11.8,10.3-19.9,26.6-19.9c14.8,0,23.8,7.3,27.1,18.5
		c0.7,2.4-0.6,3.8-3,3.8h-11.1c-1.7,0-2.4-0.6-3.5-2.4c-1.8-2.8-4.5-4.7-11.1-4.7c-5.4,0-8.2,2.3-8.2,4.8c0,5.1,8.9,5.2,18,7
		c9.9,2,20.2,5.6,20.2,19.5c0,12.8-11.6,21.1-27.2,21.1C336.3,144.3,328.5,135.4,325.4,125.7z"/>
</g>
<g>
</g>
<g>
</g>
<g>
</g>
<g>
</g>
<g>
</g>
<g>
</g>
<g>
</g>
<g>
</g>
<g>
</g>
<g>
</g>
<g>
</g>
<g>
</g>
<g>
</g>
<g>
</g>
<g>
</g>
</svg>
