<?xml version="1.0" encoding="utf-8"?>
<!-- Generator: Adobe Illustrator 16.0.0, SVG Export Plug-In . SVG Version: 6.00 Build 0)  -->
<!DOCTYPE svg PUBLIC "-//W3C//DTD SVG 1.1//EN" "http://www.w3.org/Graphics/SVG/1.1/DTD/svg11.dtd">
<svg version="1.1" id="Layer_1" xmlns="http://www.w3.org/2000/svg" xmlns:xlink="http://www.w3.org/1999/xlink" x="0px" y="0px"
	 width="57.688px" height="58.213px" viewBox="0 0 57.688 58.213" enable-background="new 0 0 57.688 58.213" xml:space="preserve">
<path fill="#FFFFFF" d="M102.803,58.897L102.803,58.897L102.803,58.897 M102.858,51.979c0.021-0.008,0.047-0.017,0.068-0.024
	C102.905,51.962,102.881,51.972,102.858,51.979z"/>
<path fill="#FFFFFF" d="M54.822,18.543c-0.183-0.227-0.505-0.379-0.8-0.379c-0.596,0-1.087,0.514-1.087,1.1
	c0,0.279,0.121,0.541,0.32,0.738c0.199,0.19,0.484,0.329,0.767,0.329c0.275,0,0.624-0.148,0.8-0.364v0.209
	c-0.226,0.188-0.498,0.299-0.793,0.299c-0.667,0-1.246-0.555-1.246-1.223c0-0.679,0.569-1.229,1.249-1.229
	c0.287,0,0.581,0.114,0.79,0.311V18.543z"/>
<rect x="55.268" y="18.054" fill="#FFFFFF" width="0.152" height="2.389"/>
<path fill="#FFFFFF" d="M56.166,19.656l-0.317,0.785h-0.157l1.002-2.465l0.995,2.465h-0.154l-0.318-0.785H56.166z M56.693,18.36
	l-0.47,1.152h0.936L56.693,18.36z"/>
<g>
	<path fill="#FFFFFF" d="M21.168,58.213H0.555c-0.101,0-0.201-0.043-0.271-0.117c-0.068-0.077-0.102-0.174-0.097-0.275
		C0.21,57.491,2.74,24.739,2.665,0.369c0-0.107,0.043-0.207,0.121-0.276c0.083-0.07,0.189-0.102,0.291-0.09l17.752,2.226
		c0.199,0.027,0.344,0.208,0.318,0.413c-0.027,0.201-0.209,0.344-0.41,0.32L3.402,0.783c0.046,22.896-2.163,52.91-2.449,56.698
		h20.218c0.204,0,0.366,0.165,0.366,0.363C21.537,58.048,21.373,58.213,21.168,58.213z"/>
</g>
<g>
	<path fill="#FFFFFF" d="M0.405,57.864l-0.369-0.015C0.031,57.578-0.48,30.028,2.515,0.197l0.363,0.017
		c0,0.187,0.02,18.967-0.81,36.891c-0.32,6.833-0.926,13.09-1.46,18.607L0.405,57.864z M2.495,4.217
		c-2.008,22.095-2.156,42.292-2.126,50.15C0.87,49.184,1.406,43.382,1.7,37.089C2.303,24.125,2.461,10.707,2.495,4.217z"/>
</g>
<g>
	<path fill="#FFFFFF" d="M39.842,58.485l-0.286-0.553c-1.324-2.575-2.614-16.434-2.77-18.194l-14.245-0.386v-0.18
		c0.005-0.543,0.182-2.029,0.189-2.095l0.019-0.165l17.902,0.468l0.014,0.161c0.611,5.943-0.751,20.178-0.766,20.323L39.842,58.485z
		 M22.917,38.996l14.204,0.383l0.015,0.163c0.01,0.146,1.212,13.565,2.469,17.518c0.271-3.021,1.203-14.135,0.717-19.317
		L23.08,37.286C23.039,37.65,22.944,38.506,22.917,38.996z"/>
</g>
<g>
	<path fill="#FFFFFF" d="M39.541,19.597l-3.773-0.245l0.005-0.18c0-0.097,0.32-9.807,0.854-14.446l0.072-0.635l0.277,0.579
		c0.005,0.017,0.931,1.979,1.581,5.256c0.451,2.304,0.669,5.354,0.907,8.589L39.541,19.597z M36.15,19.005l2.998,0.197L39.1,18.54
		c-0.233-3.218-0.456-6.262-0.902-8.544c-0.422-2.136-0.96-3.698-1.281-4.518C36.471,9.933,36.19,17.732,36.15,19.005z"/>
</g>
<g>
	<path fill="#FFFFFF" d="M21.168,58.213c-0.015,0-0.034,0-0.054-0.005c-0.198-0.024-0.339-0.213-0.31-0.412
		c0.01-0.087,1.218-8.841,1.634-20.712c0.005-0.201,0.177-0.359,0.374-0.354l18.038,0.461c0.189,0.005,0.344,0.155,0.354,0.345
		c0.485,6.918-0.509,17.724-0.727,19.945H56.42c3.065-27.308-3.483-48.219-4.249-50.55L37.693,5.185
		c1.227,3.895,2.313,13.738,2.362,14.177c0.015,0.107-0.024,0.213-0.097,0.294c-0.078,0.075-0.185,0.119-0.287,0.114l-17.039-1.009
		c-0.185-0.012-0.333-0.16-0.342-0.347c-0.337-5.774-0.968-11.071-1.868-15.747c-0.041-0.201,0.092-0.393,0.289-0.434
		c0.199-0.039,0.393,0.092,0.432,0.293c0.892,4.62,1.518,9.839,1.86,15.518l16.27,0.96C39.032,16.91,37.941,7.807,36.81,4.882
		c-0.048-0.119-0.029-0.257,0.049-0.361c0.083-0.102,0.213-0.153,0.34-0.138l15.292,1.845c0.137,0.015,0.252,0.109,0.301,0.24
		c0.078,0.218,7.672,22.243,4.322,51.421c-0.02,0.184-0.175,0.324-0.364,0.324H40.08c-0.107,0-0.208-0.043-0.277-0.122
		c-0.067-0.077-0.106-0.183-0.092-0.285c0.01-0.126,1.261-12.227,0.786-19.89l-17.334-0.444
		c-0.422,11.723-1.613,20.333-1.625,20.421C21.508,58.083,21.348,58.213,21.168,58.213z"/>
</g>
</svg>
